HIERARCHY
ROOT Hips
{
	OFFSET -9.456058 105.799324 -2.416385
	CHANNELS 6 Xposition Yposition Zposition Xrotation Yrotation Zrotation
	JOINT Chest
	{
		OFFSET 2.360795 13.403282 0.965826
		CHANNELS 3 Xrotation Yrotation Zrotation
		JOINT Chest2
		{
			OFFSET 2.494763 21.059021 3.059500
			CHANNELS 3 Xrotation Yrotation Zrotation
			JOINT Chest3
			{
				OFFSET 0.798740 14.895294 -0.558699
				CHANNELS 3 Xrotation Yrotation Zrotation
				JOINT Neck
				{
					OFFSET 1.026565 17.232559 0.775391
					CHANNELS 3 Xrotation Yrotation Zrotation
					JOINT Head
					{
						OFFSET -0.943204 10.263916 1.894782
						CHANNELS 3 Xrotation Yrotation Zrotation
						End Site
						{
							OFFSET -0.932664 10.277725 1.823789
						}
					}
				}
				JOINT LeftCollar
				{
					OFFSET 5.174080 12.844101 3.172128
					CHANNELS 3 Xrotation Yrotation Zrotation
					JOINT LeftUpArm
					{
						OFFSET 15.583922 3.613190 -7.251599
						CHANNELS 3 Xrotation Yrotation Zrotation
						JOINT LeftLowArm
						{
							OFFSET 27.576170 14.065994 13.469599
							CHANNELS 3 Xrotation Yrotation Zrotation
							JOINT LeftHand
							{
								OFFSET -20.801857 20.669708 6.402614
								CHANNELS 3 Xrotation Yrotation Zrotation
								End Site
								{
									OFFSET -4.546366 4.517487 1.399328
								}
							}
						}
					}
				}
				JOINT RightCollar
				{
					OFFSET -3.208285 13.316925 3.764995
					CHANNELS 3 Xrotation Yrotation Zrotation
					JOINT RightUpArm
					{
						OFFSET -16.611965 1.653809 -5.459293
						CHANNELS 3 Xrotation Yrotation Zrotation
						JOINT RightLowArm
						{
							OFFSET -29.014107 10.710312 13.535316
							CHANNELS 3 Xrotation Yrotation Zrotation
							JOINT RightHand
							{
								OFFSET 14.737682 23.252747 11.961006
								CHANNELS 3 Xrotation Yrotation Zrotation
								End Site
								{
									OFFSET 3.221092 5.082092 2.614210
								}
							}
						}
					}
				}
			}
		}
	}
	JOINT LeftUpLeg
	{
		OFFSET 9.867457 -1.713722 -0.339984
		CHANNELS 3 Xrotation Yrotation Zrotation
		JOINT LeftLowLeg
		{
			OFFSET 4.339057 -43.257298 18.814014
			CHANNELS 3 Xrotation Yrotation Zrotation
			JOINT LeftFoot
			{
				OFFSET -19.663980 -35.411423 -18.971725
				CHANNELS 3 Xrotation Yrotation Zrotation
				JOINT LeftToe
				{
					OFFSET -18.007153 -13.473691 7.332203
					CHANNELS 3 Xrotation Yrotation Zrotation
					End Site
					{
						OFFSET -11.958527 -5.401974 19.681749
					}
				}
			}
		}
	}
	JOINT RightUpLeg
	{
		OFFSET -9.867496 1.713531 0.339970
		CHANNELS 3 Xrotation Yrotation Zrotation
		JOINT RightLowLeg
		{
			OFFSET -0.613272 -47.271450 3.007859
			CHANNELS 3 Xrotation Yrotation Zrotation
			JOINT RightFoot
			{
				OFFSET 5.702040 -39.333496 -20.516911
				CHANNELS 3 Xrotation Yrotation Zrotation
				JOINT RightToe
				{
					OFFSET -1.184283 -19.997049 12.580645
					CHANNELS 3 Xrotation Yrotation Zrotation
					End Site
					{
						OFFSET -5.820403 -7.691620 21.599030
					}
				}
			}
		}
	}
}
MOTION
Frames: 11
Frame Time: 0.033333
-4.231971 104.806046 -1.111725 7.137291 -3.995506 7.322627 -6.746517 0.754641 -0.265632 4.405316 2.109875 -2.360240 0.467182 -2.881495 -3.470054 -9.708890 6.325670 -4.079261 -0.000000 -0.000000 -0.000001 5.201659 3.578244 -37.668650 21.789077 -1.125150 -68.221063 61.662224 8.365665 -84.092203 0.000002 0.000001 0.000006 9.217999 -2.543283 28.295464 25.615219 10.949335 60.364939 55.894290 -11.455250 71.936051 -0.000004 -0.000004 0.000000 19.628396 -4.397992 -7.471572 -32.056905 4.012611 32.828970 -11.502196 22.776277 16.703610 -0.000000 -0.000000 0.000001 0.755790 1.291258 -8.876142 -12.861935 -2.809685 -8.210471 -0.733747 3.656200 -0.090358 -0.000000 -0.000000 0.000003 
-4.227144 104.805931 -1.108408 6.706173 -4.214907 7.350773 -6.441011 0.713776 -0.311319 4.224293 2.171562 -2.388882 0.557327 -2.693326 -3.403312 -9.635690 6.262562 -4.007587 0.000000 0.000001 -0.000000 5.243906 3.850717 -37.989358 21.920367 -1.230800 -67.855990 61.839556 8.556492 -84.480766 0.000001 -0.000003 0.000005 9.324747 -2.207418 28.433391 25.912390 10.631140 60.237802 55.857922 -11.506987 71.570089 -0.000002 -0.000001 0.000004 20.270099 -4.547531 -7.551166 -32.306767 3.895635 32.858555 -11.194846 22.332516 16.321586 -0.000003 -0.000001 -0.000005 1.367048 1.224457 -8.992302 -12.754568 -2.650937 -8.189964 -1.233428 4.134299 0.563847 -0.000000 -0.000003 0.000000 
-4.226265 104.805618 -1.103042 6.536619 -4.580076 7.400649 -6.310843 0.704593 -0.396402 4.419819 2.257348 -2.570404 0.413406 -2.325942 -3.195900 -9.475805 6.253830 -4.009377 0.000000 -0.000001 -0.000001 5.325205 3.689719 -38.161114 21.904222 -1.417015 -67.609939 61.797154 8.614290 -84.203337 -0.000000 0.000003 0.000008 9.437651 -1.854009 28.504037 26.142530 10.267197 60.338328 55.742202 -11.502837 71.100965 -0.000002 -0.000001 0.000005 20.318199 -4.547229 -7.556351 -32.307946 3.879677 32.718495 -10.880229 22.006605 15.947343 -0.000000 -0.000004 -0.000002 1.383803 1.221277 -9.011621 -12.647576 -2.551325 -8.289015 -1.356843 4.533827 0.898287 -0.000000 0.000002 -0.000000 
-4.224556 104.808937 -1.098563 6.469642 -4.740462 7.410576 -6.480069 0.731772 -0.394324 4.235462 2.357108 -2.668256 0.612946 -2.315299 -3.086928 -9.296642 6.331716 -4.034971 -0.000000 -0.000001 -0.000000 5.380241 3.851325 -38.401704 22.063961 -1.216324 -67.563063 61.834768 8.709664 -83.891348 -0.000004 0.000002 0.000006 9.625558 -1.161503 28.570663 26.292574 10.138304 60.258456 55.566816 -11.753609 70.816480 -0.000001 -0.000001 0.000004 20.262566 -4.533275 -7.562965 -32.266302 3.855953 32.639910 -10.580865 22.049548 15.562349 -0.000002 -0.000003 -0.000005 1.202091 1.247090 -8.957620 -12.438376 -2.484743 -8.397465 -1.590113 4.676999 1.084451 -0.000001 -0.000001 0.000001 
-4.220695 104.810143 -1.092462 6.591253 -4.457194 7.450243 -6.769058 0.780237 -0.307448 4.039810 2.314560 -2.541110 0.929971 -2.313822 -3.268690 -9.404664 6.154053 -3.920068 -0.000001 -0.000000 0.000000 5.364490 3.480934 -38.507732 22.005251 -1.279710 -67.539800 61.674156 8.737084 -83.815355 0.000002 0.000001 0.000003 9.577816 -1.137862 28.671211 26.187871 10.294255 60.130499 55.352505 -11.844846 70.869401 -0.000001 -0.000001 0.000002 20.154258 -4.563474 -7.560076 -32.213317 3.898861 32.659052 -10.820470 22.013829 15.881810 -0.000004 0.000000 0.000000 1.146369 1.279613 -9.008151 -12.243179 -2.520619 -8.318301 -1.941372 4.394855 1.085103 -0.000001 0.000003 0.000002 
-4.219516 104.812332 -1.091416 6.753928 -4.192653 7.365040 -6.966089 0.798095 -0.141896 4.586451 2.180173 -2.478467 0.537208 -2.476683 -3.354037 -9.499696 6.221658 -3.891281 -0.000001 -0.000000 -0.000000 5.285550 3.587169 -38.601238 21.913777 -1.306768 -67.521775 61.605253 8.475612 -84.064179 0.000001 -0.000003 0.000003 9.669289 -0.559433 28.749830 26.196991 9.984667 60.166535 55.039164 -11.805250 70.449269 -0.000000 0.000002 0.000007 19.924352 -4.510607 -7.446853 -32.031139 3.898694 32.587802 -10.898938 21.849599 15.960871 -0.000003 -0.000004 0.000003 1.158044 1.292414 -8.959472 -12.451872 -2.452436 -8.177337 -1.922485 4.213177 1.088013 -0.000001 0.000000 0.000004 
-4.217968 104.818626 -1.089547 6.549765 -4.255758 7.377561 -6.691631 0.745178 -0.178919 4.713323 2.167512 -2.505156 0.252260 -2.270455 -3.287961 -9.215196 6.218448 -3.907836 -0.000000 -0.000001 0.000001 5.231138 3.851643 -38.597939 21.887529 -1.307477 -67.620655 61.581689 8.468892 -84.432756 -0.000002 0.000004 0.000005 9.581461 -0.908448 28.787898 26.156836 9.916315 60.233389 55.037664 -11.729769 70.500926 -0.000002 0.000003 0.000005 20.370933 -4.543218 -7.442968 -32.353711 3.962625 32.605356 -10.953165 21.913409 16.031811 -0.000001 0.000001 -0.000000 1.384422 1.227999 -8.988264 -12.549646 -2.495366 -8.184287 -1.786804 4.149223 0.990007 -0.000000 -0.000002 0.000002 
-4.216243 104.820763 -1.087286 6.747599 -4.473073 7.442967 -6.844561 0.758676 -0.140823 4.839977 2.208555 -2.602159 0.185748 -2.345462 -3.261965 -9.159556 6.258790 -3.922329 -0.000000 -0.000000 -0.000000 5.241628 3.760352 -38.630269 21.894503 -1.253921 -67.517076 61.803820 8.439497 -84.530947 0.000006 -0.000003 0.000003 9.672762 -0.466911 28.657934 26.080697 10.021886 60.213343 55.102879 -11.943426 70.798490 -0.000003 -0.000001 0.000004 20.233303 -4.546829 -7.505091 -32.381445 3.984340 32.597986 -10.924720 21.980727 15.974776 -0.000003 -0.000002 -0.000004 1.048391 1.275984 -9.030681 -12.238847 -2.463818 -8.232424 -1.800911 4.356139 1.150625 -0.000000 0.000000 0.000002 
-4.218296 104.825798 -1.083798 6.415288 -4.459863 7.458176 -6.266307 0.658496 -0.213704 4.748502 2.242470 -2.593002 0.181510 -2.349705 -3.236504 -9.285137 6.364382 -3.826913 0.000000 -0.000001 -0.000000 5.343574 3.478055 -38.561612 21.922184 -1.421995 -67.494324 61.710151 8.418609 -84.488955 0.000003 -0.000004 0.000004 9.746782 -0.330358 28.756691 26.197631 10.005353 60.212967 54.832649 -11.873023 70.118169 -0.000002 0.000000 0.000002 20.736565 -4.629507 -7.495917 -32.623907 3.958246 32.588322 -10.829577 21.487881 15.927260 -0.000000 -0.000001 -0.000005 1.439331 1.217236 -9.029817 -12.477504 -2.450514 -8.254868 -1.707084 4.317398 1.114873 -0.000002 0.000002 0.000001 
-4.226022 104.826393 -1.088237 6.848173 -4.667804 7.523382 -7.044079 0.787064 -0.127622 5.340908 2.184402 -2.681803 -0.068975 -2.269877 -3.204783 -8.993296 6.448806 -3.999693 -0.000000 -0.000000 -0.000000 5.273458 3.627195 -38.548836 21.829134 -1.414489 -67.389563 61.844078 8.200080 -84.873105 0.000001 0.000003 0.000004 9.436471 -1.803415 29.046691 26.039389 10.137895 59.947969 55.356965 -11.406527 71.109823 -0.000004 0.000001 0.000000 20.112790 -4.599435 -7.557620 -32.694702 3.926979 32.622783 -10.653451 22.308554 15.605708 -0.000000 -0.000001 -0.000000 0.817193 1.371075 -9.028520 -12.209603 -2.444550 -8.240865 -1.777167 4.130887 0.944418 -0.000001 0.000003 0.000002 
-4.231210 104.827736 -1.091385 6.482574 -4.537131 7.625455 -6.700572 0.734620 -0.162200 5.213573 2.187940 -2.662832 -0.142420 -2.490734 -3.289658 -9.142908 6.492950 -4.029868 0.000000 -0.000001 -0.000001 5.183123 3.604411 -38.686854 21.664117 -1.337893 -67.197163 61.910590 7.686055 -84.325898 0.000003 0.000001 0.000009 9.334511 -1.886894 29.158819 25.827930 10.275221 59.812684 55.310606 -11.116864 71.307312 -0.000003 -0.000001 0.000004 20.266324 -4.681919 -7.661089 -32.067086 3.949195 32.604721 -10.728235 22.602814 15.705586 0.000000 -0.000001 -0.000005 0.950906 1.347619 -9.124083 -11.771672 -2.416202 -8.232052 -1.709381 4.052146 0.850287 -0.000000 0.000000 0.000001 
